# xmcd CD database file
#
# Track frame offsets:
#	150
#	17374
#	32143
#	46315
#	72249
#	82617
#	96500
#	114053
#	127299
#	151595
#	163015
#	174508
#	188202
#	211265
#	222170
#	240531
#	257352
#	275570
#	292039
#	309036
#
# Disc length: 4381 seconds
#
# Revision: 3
# Processed by: cddbd v1.5.2PL0 Copyright (c) Steve Scherf et al.
# Submitted via: CDex 1.51
#
DISCID=06111b14
DTITLE=Various Artist - That's Jazz - The Album - CD 1
DYEAR=2002
DGENRE=Jazz
TTITLE0=Benny Goodman - St. Louis Blues
TTITLE1=Glenn Miller - Pennsylvania 6-5000
TTITLE2=Frank Sinatra - Begin The Begin
TTITLE3=Chris Barbers Jazz Band - Ice Cream
TTITLE4=Louis Armstrong - What A Wonderful World
TTITLE5=Ella Fitzgerald - On The Sunny Side Of The Street
TTITLE6=The Oscar Peterson Trio - The Girl From Ipanema
TTITLE7=Mr. Acker Bilk - Sentimental Journey
TTITLE8=Dave Brubeck - Take Five
TTITLE9=Sam Cooke - Ol' Man River
TTITLE10=Stan Getz - Autumn Leave
TTITLE11=Dutch Swing College Band - Midnight In Moscow
TTITLE12=Monty Sunshine Jazz Band - My Old Kentucky Home
TTITLE13=Nat King Cole - Sweet Georgia Brown
TTITLE14=Coleman Hawkins - Body And Soul
TTITLE15=Bessie Smith - A Good Man Is Hard To Find
TTITLE16=Fatty George and Band - I Can't Give You Anything But Love
TTITLE17=Phoenix Jazz Band - The Sheik Of Araby
TTITLE18=The Red Hot Peppers - Hello Dolly
TTITLE19=The Firehouse Five - Storyville Blues
EXTD=YEAR: 2002
EXTT0=
EXTT1=
EXTT2=
EXTT3=
EXTT4=
EXTT5=
EXTT6=
EXTT7=
EXTT8=
EXTT9=
EXTT10=
EXTT11=
EXTT12=
EXTT13=
EXTT14=
EXTT15=
EXTT16=
EXTT17=
EXTT18=
EXTT19=
PLAYORDER=
